<svg xmlns="http://www.w3.org/2000/svg" viewBox="0 0 64 64" fill="none">
  <defs>
    <linearGradient id="ledgerGradient" x1="12" y1="10" x2="52" y2="54" gradientUnits="userSpaceOnUse">
      <stop stop-color="#0F766E"/>
      <stop offset="1" stop-color="#D6A84F"/>
    </linearGradient>
    <linearGradient id="paperGradient" x1="20" y1="16" x2="44" y2="48" gradientUnits="userSpaceOnUse">
      <stop stop-color="#FFFDF8"/>
      <stop offset="1" stop-color="#F3EEE4"/>
    </linearGradient>
  </defs>
  <rect x="6" y="6" width="52" height="52" rx="16" fill="#F6F1E8"/>
  <rect x="8" y="8" width="48" height="48" rx="14" fill="url(#ledgerGradient)" opacity=".16"/>
  <path d="M20 15.5C20 13.567 21.567 12 23.5 12H40.5C42.433 12 44 13.567 44 15.5V48.5C44 50.433 42.433 52 40.5 52H23.5C21.567 52 20 50.433 20 48.5V15.5Z" fill="url(#paperGradient)"/>
  <path d="M25 23H39" stroke="#115E59" stroke-width="3.2" stroke-linecap="round"/>
  <path d="M25 31H39" stroke="#115E59" stroke-width="3.2" stroke-linecap="round" opacity=".82"/>
  <path d="M25 39H33" stroke="#D6A84F" stroke-width="3.2" stroke-linecap="round"/>
  <circle cx="43" cy="44" r="9" fill="#115E59"/>
  <path d="M39.5 44H46.5" stroke="#FFFDF8" stroke-width="3" stroke-linecap="round"/>
  <path d="M43 40.5V47.5" stroke="#FFFDF8" stroke-width="3" stroke-linecap="round"/>
</svg>
